<?xml version="1.0" encoding="UTF-8" standalone="no"?>
<!-- Created with Inkscape (http://www.inkscape.org/) -->

<svg
   xmlns:dc="http://purl.org/dc/elements/1.1/"
   xmlns:cc="http://creativecommons.org/ns#"
   xmlns:rdf="http://www.w3.org/1999/02/22-rdf-syntax-ns#"
   xmlns:svg="http://www.w3.org/2000/svg"
   xmlns="http://www.w3.org/2000/svg"
   xmlns:sodipodi="http://sodipodi.sourceforge.net/DTD/sodipodi-0.dtd"
   xmlns:inkscape="http://www.inkscape.org/namespaces/inkscape"
   width="210mm"
   height="130mm"
   viewBox="0 0 210 130"
   version="1.1"
   id="svg8"
   inkscape:version="0.92.5 (2060ec1f9f, 2020-04-08)"
   sodipodi:docname="logoAyush.svg">
  <defs
     id="defs2" />
  <sodipodi:namedview
     id="base"
     pagecolor="#ffffff"
     bordercolor="#666666"
     borderopacity="1.0"
     inkscape:pageopacity="0.0"
     inkscape:pageshadow="2"
     inkscape:zoom="0.49497475"
     inkscape:cx="224.82667"
     inkscape:cy="275.90442"
     inkscape:document-units="mm"
     inkscape:current-layer="layer1"
     showgrid="false"
     inkscape:window-width="1313"
     inkscape:window-height="706"
     inkscape:window-x="53"
     inkscape:window-y="25"
     inkscape:window-maximized="1" />
  <metadata
     id="metadata5">
    <rdf:RDF>
      <cc:Work
         rdf:about="">
        <dc:format>image/svg+xml</dc:format>
        <dc:type
           rdf:resource="http://purl.org/dc/dcmitype/StillImage" />
        <dc:title></dc:title>
      </cc:Work>
    </rdf:RDF>
  </metadata>
  <g
     inkscape:label="Layer 1"
     inkscape:groupmode="layer"
     id="layer1"
     transform="translate(0,-167)">
    <g
       id="g867"
       transform="matrix(2.4076457,0,0,2.4076457,-33.395677,-97.680352)">
      <path
         style="fill:#42b4f7;stroke-width:0.26458335"
         d="m 53.56847,161.67175 c -1.03559,-0.65371 -1.28994,-1.59875 -0.76709,-2.85011 0.22075,-0.52832 0.40136,-1.04915 0.40136,-1.1574 0,-0.10825 -0.74414,-0.46033 -1.65365,-0.78241 -2.07049,-0.7332 -4.96995,-2.65836 -6.04163,-4.01146 -0.44872,-0.56656 -0.94242,-1.0301 -1.0971,-1.0301 -0.15469,0 -0.76976,0.3959 -1.36683,0.87979 -3.33225,2.70057 -7.46511,4.86125 -10.66282,5.57458 -2.41707,0.53918 -6.63059,0.54866 -8.68957,0.0196 -2.149,-0.55224 -5.09423,-1.97653 -6.32897,-3.06065 -1.07889,-0.94728 -2.25252,-3.11909 -2.25685,-4.17634 -0.0179,-4.37174 6.22409,-8.27141 16.53388,-10.3295 2.96577,-0.59204 8.42882,-1.34288 9.77073,-1.34288 1.0571,0 1.21226,-0.18122 2.00028,-2.3362 1.31758,-3.60314 4.26173,-6.92468 7.65064,-8.6313 2.54242,-1.28035 6.82828,-2.69797 9.29,-3.07284 1.08901,-0.16583 2.25086,-0.35182 2.58189,-0.41332 0.65493,-0.12165 0.75328,-0.26566 5.10171,-7.47039 2.86472,-4.74644 3.42594,-5.43246 3.986,-4.8724 0.23887,0.23887 -0.31243,1.64366 -2.36586,6.02853 -1.47252,3.1444 -2.71072,5.89786 -2.75156,6.1188 -0.0502,0.27137 0.34772,0.54544 1.22625,0.84469 0.71528,0.24363 1.42966,0.66068 1.5875,0.92677 0.24158,0.40722 0.10279,0.64876 -0.87701,1.52623 -1.4167,1.26875 -2.29677,1.55033 -2.78,0.88948 -0.1898,-0.25957 -0.51704,-0.40596 -0.72721,-0.32531 -0.36624,0.14054 -4.35049,8.44021 -4.51132,9.39763 -0.0725,0.43177 0.67154,0.48287 10.83933,0.74454 7.96321,0.20494 11.00524,0.369 11.24258,0.60633 0.25744,0.25745 0.24298,0.37774 -0.0693,0.57617 -0.21706,0.13793 -0.57241,0.18514 -0.78965,0.10491 -0.21725,-0.0802 -5.21787,-0.21649 -11.1125,-0.30281 -9.02406,-0.13214 -10.76399,-0.0982 -11.01167,0.2148 -0.51267,0.64788 -3.22099,7.44422 -3.68022,9.23528 -0.28694,1.11909 -0.38289,2.15876 -0.2747,2.97656 0.14456,1.09274 0.10464,1.25624 -0.30587,1.25272 -1.02141,-0.009 -1.26724,-0.44181 -1.23185,-2.17004 0.0346,-1.68873 1.08689,-5.00866 2.95759,-9.33091 0.43984,-1.01624 0.7433,-1.93898 0.67436,-2.05052 -0.18004,-0.29132 -2.15697,-0.25023 -2.73056,0.0567 -0.26675,0.14275 -1.12178,1.06549 -1.90007,2.05052 -0.77829,0.98502 -2.28988,2.77978 -3.35909,3.98834 -2.32457,2.62754 -2.32856,2.84143 -0.0942,5.05392 2.70625,2.67978 6.60684,4.12325 9.50714,3.51826 3.35098,-0.699 3.37777,-0.71459 4.13636,-2.40494 0.9014,-2.00858 0.86817,-2.5053 -0.0924,-1.382 -1.71239,2.00238 -3.71219,2.50094 -4.74828,1.18378 -0.3016,-0.38343 -0.54837,-0.84601 -0.54837,-1.02795 0,-1.18871 2.23512,-6.65488 3.26035,-7.97346 0.30886,-0.39724 0.7582,-0.6202 1.24988,-0.6202 0.42222,0 1.63397,-0.34053 2.69278,-0.75674 1.36061,-0.53483 2.60398,-0.8026 4.24022,-0.91316 1.27331,-0.086 2.31511,-0.11723 2.31511,-0.0693 0,0.0479 -0.1786,0.51454 -0.39688,1.03696 -0.44199,1.05783 -0.54333,4.14185 -0.1361,4.14185 0.14343,0 0.61383,-0.69939 1.04534,-1.5542 0.81981,-1.62405 1.15304,-1.88538 2.40408,-1.88538 1.00145,0 1.156,0.32598 0.53115,1.12034 -0.88359,1.12331 -3.44759,6.59489 -3.44759,7.35717 0,0.39946 0.17099,0.79191 0.37998,0.8721 0.90713,0.3481 2.68179,-2.00038 5.00078,-6.61778 1.23814,-2.46528 1.51553,-2.73183 2.84296,-2.73183 0.89796,0 0.96427,0.3075 0.27645,1.28207 -1.4049,1.99064 -3.34012,6.79833 -3.04552,7.56605 0.087,0.22676 0.37495,0.4123 0.63987,0.4123 0.4915,0 1.5745,-1.15559 1.58321,-1.68933 0.003,-0.16228 0.33007,-0.68403 0.7276,-1.15945 0.39754,-0.47542 1.43795,-2.25514 2.31202,-3.95493 1.72575,-3.356 2.65007,-4.26609 3.991,-3.92954 0.8204,0.2059 0.7072,0.77912 -0.177,0.89623 -1.44765,0.19174 -1.68745,1.79387 -0.64073,4.28076 0.3638,0.86436 0.66146,2.03478 0.66146,2.60094 0,0.6617 -0.23627,1.37755 -0.66146,2.0041 -0.72845,1.07344 -0.7773,1.2158 -0.41718,1.2158 0.91962,0 2.07766,-1.80079 5.46536,-8.49878 1.98824,-3.93103 3.90877,-7.49649 4.26786,-7.92324 0.48711,-0.5789 0.88202,-0.7759 1.5554,-0.7759 0.5812,0 0.90252,0.12715 0.90252,0.35712 0,0.19642 -0.63606,1.41681 -1.41347,2.71198 -1.81017,3.01577 -4.451,8.08796 -4.29317,8.24579 0.0668,0.0668 0.63393,-0.29458 1.26037,-0.80299 2.02531,-1.64371 4.97544,-2.85492 4.97544,-2.04272 0,0.14691 -0.52727,1.24823 -1.17171,2.4474 -1.29847,2.4162 -2.37266,5.36206 -2.15862,5.91984 0.39349,1.02544 1.84828,-0.33753 3.33245,-3.12212 0.45246,-0.84891 0.99427,-1.54347 1.20402,-1.54347 0.20974,0 0.38136,0.0719 0.38136,0.15975 0,0.46138 -2.06879,4.0011 -2.77783,4.7529 -1.40441,1.48911 -3.23011,1.5434 -3.96722,0.11797 -0.51372,-0.99341 -0.25292,-2.27949 0.89024,-4.39011 0.83388,-1.53959 1.01939,-2.228 0.60039,-2.228 -0.62753,0 -2.97101,2.53751 -4.45526,4.82412 -1.67664,2.58302 -2.53469,3.26781 -3.32449,2.65318 -0.20973,-0.16321 -1.21613,-0.16317 -2.80186,1.2e-4 -2.36455,0.2435 -2.51079,0.22805 -3.28916,-0.34743 -0.78084,-0.5773 -0.84639,-0.58401 -1.58178,-0.16196 -1.11495,0.6399 -2.45338,0.57305 -2.95824,-0.14774 -0.22653,-0.32342 -0.41188,-0.79967 -0.41188,-1.05833 0,-0.67631 -0.20012,-0.59711 -1.48585,0.58803 -0.92202,0.84989 -1.34735,1.05834 -2.15949,1.05834 -0.55623,0 -1.14692,-0.13559 -1.31264,-0.30132 -0.22536,-0.22536 -0.6001,-0.0383 -1.48669,0.7421 -0.65196,0.57387 -2.20361,1.61489 -3.44812,2.31337 -1.68635,0.94647 -2.69587,1.75392 -3.96317,3.1699 -2.04912,2.28954 -3.82624,3.34021 -5.94055,3.51218 -1.18529,0.0964 -1.67658,0.0123 -2.32734,-0.3985 z m 3.1028,-0.98291 c 0.86608,-0.44786 2.88147,-2.18225 2.88147,-2.4797 0,-0.10127 -1.06655,-0.20689 -2.3701,-0.2347 -2.10482,-0.0449 -2.4281,0.0117 -2.8883,0.50565 -0.67602,0.72562 -0.93004,1.78079 -0.54143,2.24903 0.40941,0.49331 1.92702,0.47236 2.91836,-0.0403 z M 32.41004,157.2337 c 2.80763,-0.72361 7.54606,-3.44621 10.13525,-5.8235 l 1.11652,-1.02514 -0.69973,-1.98438 c -0.59628,-1.69102 -0.7002,-2.42439 -0.70297,-4.96093 -0.004,-3.4832 0.48514,-3.19156 -4.32251,-2.57822 -13.99833,1.78583 -22.05513,5.92321 -21.13065,10.85113 0.24375,1.2993 2.09435,3.26252 4.05491,4.30167 3.45988,1.83382 7.50713,2.26114 11.54918,1.21937 z m 34.40374,-5.18772 c 0.44088,-0.62944 0.5778,-3.11613 0.17158,-3.11613 -0.21232,0 -1.3472,2.94079 -1.3472,3.49096 0,0.43967 0.77911,0.19126 1.17562,-0.37483 z m -4.896,-1.02396 c 1.10347,-1.10347 2.08196,-2.56381 3.59145,-5.36007 1.01852,-1.88675 1.19245,-2.38729 0.895,-2.57564 -0.67158,-0.42524 -2.06564,-0.26522 -2.63311,0.30224 -0.85001,0.85001 -3.42463,6.30515 -3.42463,7.25615 0,1.44586 0.4054,1.54321 1.57129,0.37732 z m 20.12454,0.56928 c 0,-0.13693 -0.11906,-0.32255 -0.26458,-0.41249 -0.14552,-0.0899 -0.26458,0.0221 -0.26458,0.24897 0,0.22687 0.11906,0.41249 0.26458,0.41249 0.14552,0 0.26458,-0.11204 0.26458,-0.24897 z m 2.28981,-1.93586 c 0.20487,-1.26251 -0.14661,-4.95892 -0.47153,-4.95892 -0.13929,0 -0.61022,0.74414 -1.04651,1.65364 -0.65767,1.37098 -0.76529,1.85718 -0.62961,2.84428 0.09,0.65484 0.34511,1.47284 0.56688,1.81777 0.39835,0.61958 0.40938,0.62099 0.91389,0.11648 0.28087,-0.28088 0.58096,-0.94384 0.66688,-1.47325 z m -33.95485,-6.19427 c 1.40848,-1.69809 2.56087,-3.18637 2.56087,-3.30729 0,-0.29533 -5.85376,-0.27467 -6.3228,0.0223 -0.28894,0.18295 -0.33708,0.71654 -0.22045,2.44334 0.16234,2.40347 0.58861,3.92907 1.09785,3.92907 0.17802,0 1.47606,-1.38935 2.88453,-3.08744 z m 3.29128,-4.75298 c 0.85457,-0.22899 8.17776,-10.70929 7.85176,-11.23676 -0.20117,-0.32551 -3.38942,-0.29898 -5.24272,0.0436 -4.03992,0.74682 -7.28844,3.37348 -8.79982,7.11527 -0.67283,1.66576 -1.17838,3.86842 -0.9421,4.1047 0.19419,0.19418 6.39512,0.17086 7.13288,-0.0268 z m 5.27081,-0.42782 c 0.48809,-0.65843 4.6346,-10.02373 4.49835,-10.15998 -0.0769,-0.0769 -1.24082,1.50788 -2.58645,3.52178 -1.34564,2.0139 -2.90266,4.28163 -3.46007,5.0394 -0.5574,0.75778 -1.01346,1.50192 -1.01346,1.65365 0,0.39197 2.26637,0.34345 2.56163,-0.0548 z"
         id="path832"
         inkscape:connector-curvature="0" />
      <path
         style="fill:#f8fcff;fill-opacity:1;stroke-width:0.26458335"
         d="m 53.99649,161.70673 c -1.42147,-0.52266 -1.69691,-1.91475 -0.72009,-3.63939 0.847,-1.49543 2.49086,-2.38823 6.14405,-3.33689 1.74625,-0.45347 3.37289,-1.0006 3.61476,-1.21584 0.34833,-0.30998 1.80919,-3.70378 1.80919,-4.20302 0,-0.41107 -0.55821,0.0482 -1.27976,1.05294 -1.49955,2.0881 -3.44697,2.83442 -4.54107,1.74032 -0.6419,-0.6419 -0.67055,-1.55552 -0.10372,-3.30729 0.60372,-1.86578 2.26152,-5.3795 2.74243,-5.81263 0.52902,-0.47644 1.76139,-0.7774 1.94787,-0.47568 0.0805,0.13027 -0.68041,1.86785 -1.69093,3.86129 -1.06711,2.10506 -1.83732,3.95922 -1.83732,4.42309 0,0.88881 0.60327,1.29322 1.29274,0.86661 0.92408,-0.57179 2.94145,-3.41634 4.36231,-6.15102 1.45579,-2.80189 1.80165,-3.19395 2.81765,-3.19395 0.7892,0 0.8252,0.39426 0.14833,1.62455 -1.05248,1.91304 -3.38427,8.48054 -3.10881,8.756 0.35108,0.35107 1.58846,-0.3452 2.83791,-1.59688 0.57579,-0.57682 1.9209,-2.66884 3.00431,-4.67256 1.39343,-2.57707 2.14574,-3.69808 2.59691,-3.86962 0.77166,-0.29338 0.90119,-0.29452 1.34688,-0.0119 0.27379,0.1736 0.19695,0.44436 -0.35549,1.25272 -0.81686,1.19527 -2.86838,5.48482 -3.13916,6.56372 -0.21112,0.84114 0.18409,1.479 0.91635,1.479 0.73972,0 2.04143,-1.79278 4.08112,-5.62071 1.49527,-2.8062 1.98624,-3.5111 2.54846,-3.65884 1.34465,-0.35333 1.30052,0.0794 -0.34442,3.37687 -1.75056,3.50922 -2.21872,5.42356 -1.40294,5.7366 0.66522,0.25527 1.64398,-0.48082 2.10432,-1.58256 0.21704,-0.51947 0.68601,-1.29078 1.04214,-1.71402 0.35613,-0.42324 1.25556,-1.99017 1.99872,-3.48207 1.49565,-3.00251 2.29433,-3.90319 3.46118,-3.90319 1.00835,0 1.00745,0.41733 -10e-4,0.61909 -1.13784,0.22757 -1.55053,1.69496 -0.94207,3.34966 1.37039,3.7267 1.38817,4.14313 0.2511,5.88131 -0.7506,1.14739 -0.77509,1.26244 -0.26878,1.26244 1.04971,0 2.07454,-1.55592 5.62116,-8.53417 3.80721,-7.491 4.73899,-8.92833 5.78799,-8.92833 0.98283,0 0.98894,0.40212 0.0289,1.9032 -1.49583,2.33885 -5.20008,9.35033 -5.20008,9.84282 0,0.33858 0.40438,0.10953 1.52136,-0.86171 1.66102,-1.44431 4.27732,-2.81021 4.6565,-2.43103 0.13693,0.13693 -0.39829,1.50799 -1.28262,3.28564 -2.09758,4.21652 -2.29909,6.64583 -0.43705,5.26898 0.59584,-0.44057 2.71582,-3.52296 3.03904,-4.41866 0.0568,-0.15736 0.19277,-0.20297 0.30218,-0.10135 0.29813,0.27689 -1.66999,3.65898 -2.70239,4.64388 -1.69714,1.61907 -3.7741,0.97569 -3.7741,-1.16911 0,-0.47783 0.46542,-1.75235 1.05833,-2.89811 0.58209,-1.12485 1.05834,-2.14329 1.05834,-2.2632 0,-0.11991 -0.24323,-0.21801 -0.54051,-0.21801 -0.87881,0 -2.92648,2.16154 -4.48658,4.7361 -1.51518,2.50044 -2.14114,2.97785 -3.26065,2.48686 -0.31669,-0.1389 -0.87346,-0.16587 -1.23726,-0.06 -0.36381,0.10592 -1.48723,0.20445 -2.49649,0.21895 -1.53612,0.0221 -1.93375,-0.0664 -2.44104,-0.54294 l -0.606,-0.5693 -1.19867,0.63545 c -1.11369,0.5904 -1.24953,0.60694 -1.91592,0.23331 -0.47678,-0.26733 -0.79636,-0.73673 -0.95325,-1.40012 l -0.23601,-0.99796 -1.41048,1.33397 c -1.68052,1.58937 -2.43685,1.70288 -3.59952,0.54021 -0.43656,-0.43656 -0.85675,-0.79375 -0.93375,-0.79375 -0.077,0 -0.38865,0.3161 -0.69255,0.70245 -0.3039,0.38634 -1.42079,1.10359 -2.48199,1.5939 -1.45761,0.67345 -2.03678,1.10018 -2.36834,1.74495 -1.23659,2.40474 -4.14299,5.44831 -6.01412,6.29796 -1.04278,0.47352 -3.25553,0.64517 -4.13729,0.32096 z m 2.25735,-0.72479 c 0.50459,-0.21083 1.32903,-0.69726 1.83208,-1.08096 1.16392,-0.88776 3.97907,-4.31373 3.7406,-4.55221 -0.22787,-0.22787 -3.59173,0.61562 -5.24813,1.31598 -1.57013,0.66387 -3.11107,2.311 -3.11107,3.32545 0,1.3718 1.01355,1.73253 2.78652,0.99174 z m 26.05307,-9.15907 c 0,-0.45239 -0.52479,-1.30552 -0.80306,-1.30552 -0.28742,0 -0.35109,1.13891 -0.0789,1.41111 0.27801,0.27801 0.88195,0.20571 0.88195,-0.10559 z m 1.77983,-0.9634 c 0.33551,-0.51222 0.46341,-1.20928 0.44906,-2.44739 -0.0267,-2.30246 -0.34965,-4.29275 -0.66496,-4.09787 -0.13981,0.0864 -0.66938,0.98154 -1.17682,1.9892 -0.78033,1.54951 -0.89692,2.00558 -0.75592,2.95687 0.19561,1.31979 0.75239,2.3154 1.29485,2.3154 0.21157,0 0.59578,-0.32229 0.85379,-0.71621 z m -58.26838,7.71238 c -0.29104,-0.0672 -1.18401,-0.25295 -1.98437,-0.41275 -2.03123,-0.40556 -5.00143,-1.82466 -6.3286,-3.02368 -1.43089,-1.29273 -2.13807,-2.6889 -2.13807,-4.22119 0,-6.50874 13.2777,-11.14484 34.15843,-11.92691 2.41604,-0.0905 4.51443,-0.24192 4.6631,-0.33652 0.35504,-0.22592 4.57645,-6.193 6.39842,-9.04436 0.78727,-1.23207 2.16868,-3.37122 3.0698,-4.75367 0.90111,-1.38245 2.93589,-4.6835 4.52172,-7.33566 1.96644,-3.28871 3.03056,-4.82419 3.34634,-4.82864 0.67323,-0.01 0.57489,0.57797 -0.4318,2.57976 -0.49215,0.97863 -1.81142,3.80339 -2.9317,6.27725 -1.12029,2.47385 -2.66405,5.8076 -3.43058,7.40833 -2.7204,5.68096 -4.18451,9.10751 -4.04586,9.46882 0.11494,0.29952 2.10549,0.3982 10.93419,0.54207 9.6498,0.15725 11.71969,0.30621 11.19905,0.80597 -0.0631,0.0605 -2.61496,0.01 -5.6709,-0.11342 -8.70278,-0.35003 -16.62033,-0.31382 -17.12838,0.0783 -0.46457,0.35859 -2.69923,5.54455 -3.67684,8.53282 -0.39189,1.19789 -0.59679,2.43618 -0.58011,3.50573 0.0142,0.9095 -0.0279,1.65364 -0.0936,1.65364 -0.0657,0 -0.3497,-0.12325 -0.63117,-0.27389 -1.11485,-0.59665 -0.53867,-3.73463 1.67434,-9.11882 1.89799,-4.61774 1.89914,-4.36562 -0.0198,-4.36562 h -1.59951 l -2.31428,2.84427 c -4.98228,6.12328 -8.02816,9.03913 -12.77238,12.22709 -2.12136,1.42549 -4.9672,2.74679 -7.10905,3.30069 -1.65559,0.42815 -6.08416,0.75996 -7.07841,0.53036 z m 7.3579,-1.40862 c 4.25481,-1.50247 8.05396,-4.09919 12.66139,-8.65408 3.89348,-3.84908 7.52522,-8.25625 7.12961,-8.65186 -0.31722,-0.31722 -8.27922,0.11575 -14.05202,0.76413 -11.16856,1.2544 -19.45322,4.28669 -21.56715,7.89383 -0.75846,1.29422 -0.87948,3.18729 -0.27811,4.35023 1.0422,2.01538 4.77392,4.20248 8.35151,4.89467 1.55186,0.30025 6.23491,-0.0602 7.75477,-0.59692 z m 25.9531,-18.98715 c 0.80887,-1.36744 4.94653,-10.73405 4.85845,-10.99831 -0.0561,-0.16835 -1.85358,2.28273 -3.99436,5.44685 -2.14078,3.16413 -3.81458,5.87877 -3.71954,6.03253 0.28436,0.46011 2.52168,0.0832 2.85545,-0.48107 z"
         id="path830"
         inkscape:connector-curvature="0" />
    </g>
  </g>
</svg>
